<svg xmlns="http://www.w3.org/2000/svg" viewBox="0 0 242.5831 210.6956">
  <title>villains-logo-tagline-full-color-rgb</title>
  <g id="full-rgb">
    <g id="logoMark">
      <path id="logoMark_PathItem_" data-name="logoMark &lt;PathItem&gt;" d="M112.6909,78.5557c-1.0269-4.0048,14.2381-33.8185,23.4455-42.41-.0678-.0683-6.7769,1.8142-9.0015,2.02,2.26-3.0809,15.8136-18.1757,24.9859-28.1019a63.8884,63.8884,0,0,0-48.3637-8.5232C98.3493,11.8432,93.4889,25.98,92.77,36.0433c1.472-.7188,10.063-7.2565,10.063-7.2565-2.7381,6.5377-4.7236,38.0964-3.423,48.81l4.7576-8.66c-1.1626,10.2,1.0949,27.8626,2.944,33.1681a23.1634,23.1634,0,0,1,1.54-4.9633c2.8072-7.4618,8.7619-20.7085,11.569-23.2076A41.894,41.894,0,0,0,112.6909,78.5557Z" style="fill: #e91d2d"/>
      <path id="logoMark_PathItem_2" data-name="logoMark &lt;PathItem&gt;" d="M87.91,104.9458C85.1369,103.4739,73.0545,65.5142,73.8763,56.17L69.803,66.2675c-2.3277-5.7851-3.73-27.2119-3.4224-40.4586A63.8738,63.8738,0,0,0,106.907,126.8526c-6.0249-8.2149-14.65-24.2-16.2592-29.2656A65.0289,65.0289,0,0,0,87.91,104.9458Z" style="fill: #e91d2d"/>
      <path id="logoMark_PathItem_3" data-name="logoMark &lt;PathItem&gt;" d="M171.4258,29.3686c-3.5592,1.9511-6.5371,3.7652-8.42,5.0318,2.3277.7527,7.6331,2.1218,10.9187,2.8751-12.6978,5.4768-34.1934,25.98-37.2743,34.2974,0,0,8.25-1.7118,9.9268-1.4035-16.9084,9.9268-32.4144,45.7986-37.1374,57.0594a63.8758,63.8758,0,0,0,61.9865-97.86Z" style="fill: #e91d2d"/>
    </g>
    <g id="type">
      <path id="type_PathItem_" data-name="type &lt;PathItem&gt;" d="M51.6481,153.9H40.5792a.6454.6454,0,0,0-.6693.6054l-7.08,39.9423q-.1221.6058.5442.6054H44.41a.6456.6456,0,0,0,.67-.6054l7.1157-39.9423Q52.3165,153.9013,51.6481,153.9Z" style="fill: #091f40"/>
      <path id="type_PathItem_2" data-name="type &lt;PathItem&gt;" d="M78.8965,184.2205H64.65c-.2439,0-.3244-.1211-.243-.3628l5.23-29.3519q.1206-.6045-.5478-.6054H58.02a.6455.6455,0,0,0-.6693.6054l-7.08,39.9423q-.1219.6058.5442.6054H77.02a.6427.6427,0,0,0,.6657-.6054l1.7551-9.6222Q79.5613,184.2214,78.8965,184.2205Z" style="fill: #091f40"/>
      <path id="type_PathItem_3" data-name="type &lt;PathItem&gt;" d="M108.6165,184.2205H94.37c-.2439,0-.3243-.1211-.243-.3628l5.23-29.3519q.1206-.6045-.5478-.6054H87.74a.6454.6454,0,0,0-.6693.6054l-7.08,39.9423q-.1219.6058.5442.6054H106.74a.6428.6428,0,0,0,.6658-.6054l1.755-9.6222Q109.2813,184.2214,108.6165,184.2205Z" style="fill: #091f40"/>
      <path id="type_CompoundPathItem_" data-name="type &lt;CompoundPathItem&gt;" d="M142.9358,154.5058q0-.6045-.6657-.6054H130.3478a.7592.7592,0,0,0-.7864.6054l-20.94,39.9423q-.3028.6058.3628.6054h12.1645a.9312.9312,0,0,0,.8471-.6054l2.4816-5.6278h11.7409l.5442,5.6278a.6732.6732,0,0,0,.7265.6054h11.4987q.5442,0,.4236-.6054ZM129.0163,178.774l5.1444-11.4384h.1207l1.0294,11.4384Z" style="fill: #091f40"/>
      <path id="type_PathItem_4" data-name="type &lt;PathItem&gt;" d="M169.9849,153.9h-11.069a.6455.6455,0,0,0-.6693.6054l-7.08,39.9423q-.1219.6058.5442.6054h11.0359a.6456.6456,0,0,0,.67-.6054l7.1156-39.9423Q170.6534,153.9013,169.9849,153.9Z" style="fill: #091f40"/>
      <path id="type_PathItem_5" data-name="type &lt;PathItem&gt;" d="M208.1252,153.9h-9.8644a.6433.6433,0,0,0-.6657.6054l-3.6914,21h-.2422l-5.9915-21a.8382.8382,0,0,0-.9079-.6054h-10.41a.6433.6433,0,0,0-.6657.6054l-7.08,39.9423q-.1221.6058.5442.6054h9.8045a.6432.6432,0,0,0,.6657-.6054l3.6914-21h.3021l5.9316,21a.7585.7585,0,0,0,.7864.6054h10.53a.6427.6427,0,0,0,.6657-.6054l7.0808-39.9423Q208.73,153.9013,208.1252,153.9Z" style="fill: #091f40"/>
      <path id="type_PathItem_6" data-name="type &lt;PathItem&gt;" d="M223.9883,164.4006a5.2714,5.2714,0,0,1,2.9953-.7564,11.9874,11.9874,0,0,1,4.2365.726,13.58,13.58,0,0,1,3.6307,2.058.6705.6705,0,0,0,.9687-.1211l6.4758-7.323q.5442-.6648.06-1.0285a19.2914,19.2914,0,0,0-6.2632-3.48,24.7127,24.7127,0,0,0-8.2005-1.3011,22.1818,22.1818,0,0,0-7.3838,1.15,16.42,16.42,0,0,0-5.5671,3.2076,13.9428,13.9428,0,0,0-3.54,4.9326,15.7878,15.7878,0,0,0-1.2412,6.3239,9.15,9.15,0,0,0,2.9962,7.202q2.9958,2.664,8.8663,3.51l2.1178.3025a5.87,5.87,0,0,1,2.7237.9079,1.8352,1.8352,0,0,1,.7256,1.4525,2.5429,2.5429,0,0,1-1.3914,2.2393,7.5944,7.5944,0,0,1-3.9336.8472,12.1888,12.1888,0,0,1-5.114-1.0893,11.8042,11.8042,0,0,1-3.8433-2.6629.5124.5124,0,0,0-.3932-.2118.62.62,0,0,0-.5147.2118l-7.2623,7.0808a.6958.6958,0,0,0-.302.5446.88.88,0,0,0,.1814.5447,11.09,11.09,0,0,0,2.6325,2.3,20.9727,20.9727,0,0,0,3.813,1.9364,27.8236,27.8236,0,0,0,4.6592,1.3618,25.1647,25.1647,0,0,0,5.0533.5143,26.7907,26.7907,0,0,0,7.8984-1.0893,17.3011,17.3011,0,0,0,6.0514-3.1772,14.2015,14.2015,0,0,0,3.8738-5.0533,15.9291,15.9291,0,0,0,1.3609-6.7175,9.2727,9.2727,0,0,0-3.0257-7.2927q-3.0265-2.6921-8.8957-3.54l-2.058-.3025a6.1356,6.1356,0,0,1-2.8139-.8775,1.7723,1.7723,0,0,1-.6961-1.4221A2.239,2.239,0,0,1,223.9883,164.4006Z" style="fill: #091f40"/>
      <path id="type_PathItem_7" data-name="type &lt;PathItem&gt;" d="M38.4158,154.1122a.5908.5908,0,0,0-.5147-.2118H28.7117c-.0915.1-.1839.2012-.2764.3024-2.3469,2.5672-5.01,5.537-6.4428,7.213-.44.5145-.7681.9121-.9292,1.1317.1216-.0113.2838-.0377.4665-.0725,1.0021-.1907,2.703-.6636,2.7233-.6431-3.2627,3.0443-8.6719,13.609-8.308,15.0281a14.8523,14.8523,0,0,1,2.6682-1.6376c-.9945.8856-3.1047,5.58-4.0995,8.2238a8.2033,8.2033,0,0,0-.5458,1.7588,37.9792,37.9792,0,0,1-1.0433-11.7534L11.239,176.52c-.4609-3.7965.2426-14.98,1.2128-17.2963,0,0-3.0443,2.3167-3.5659,2.5714a29.4977,29.4977,0,0,1,1.8513-7.5926c.0375-.1016.0766-.2012.1148-.3024H.6821q-.7869,0-.6658.7265l5.8709,39.8212q.0591.6058.7864.6054H17.5674a.8988.8988,0,0,0,.9079-.6054l19.91-39.8212A.444.444,0,0,0,38.4158,154.1122Z" style="fill: #091f40"/>
    </g>
    <g id="tagline">
      <path id="tagline_CompoundPathItem_" data-name="tagline &lt;CompoundPathItem&gt;" d="M58.3782,210.6956a6.2483,6.2483,0,0,1-1.2571-.128,6.9474,6.9474,0,0,1-1.1591-.3387,5.2362,5.2362,0,0,1-.9484-.4819,2.7533,2.7533,0,0,1-.655-.5721.2187.2187,0,0,1-.045-.1354.1729.1729,0,0,1,.0753-.1354l1.8065-1.7614a.1543.1543,0,0,1,.128-.0526.1281.1281,0,0,1,.0977.0526,2.9318,2.9318,0,0,0,.956.6626,3.03,3.03,0,0,0,1.2721.2708,1.8888,1.8888,0,0,0,.9784-.2107.6329.6329,0,0,0,.3463-.5568.4558.4558,0,0,0-.1806-.3613,1.4619,1.4619,0,0,0-.6777-.226l-.5267-.0753a4.1576,4.1576,0,0,1-2.2055-.8729,2.2765,2.2765,0,0,1-.7451-1.7914,3.9267,3.9267,0,0,1,.3087-1.5733,3.4677,3.4677,0,0,1,.88-1.2268,4.0777,4.0777,0,0,1,1.385-.798,5.5233,5.5233,0,0,1,1.8365-.286,6.1392,6.1392,0,0,1,2.04.3239,4.798,4.798,0,0,1,1.5581.8654q.12.09-.015.256l-1.6108,1.8215a.1665.1665,0,0,1-.2407.03,3.3875,3.3875,0,0,0-.9034-.5119,2.9834,2.9834,0,0,0-1.0537-.1807,1.3106,1.3106,0,0,0-.7451.1885.5563.5563,0,0,0-.2786.4741.4406.4406,0,0,0,.173.3535,1.5221,1.5221,0,0,0,.7.2185l.5119.0754a4.1682,4.1682,0,0,1,2.2129.8806,2.3063,2.3063,0,0,1,.7527,1.8137,3.962,3.962,0,0,1-.3387,1.6713,3.5329,3.5329,0,0,1-.9634,1.2568,4.31,4.31,0,0,1-1.5054.7906A6.68,6.68,0,0,1,58.3782,210.6956Z" style="fill: #091f40"/>
      <path id="tagline_CompoundPathItem_2" data-name="tagline &lt;CompoundPathItem&gt;" d="M65.4629,210.5149q-.1665,0-.1362-.1506l1.301-7.3012q.015-.09-.0605-.09H64.2126c-.1105,0-.1556-.05-.1354-.1506l.4215-2.3935a.16.16,0,0,1,.1656-.1507h7.9485c.11,0,.1554.05.1354.1507l-.4367,2.3935a.16.16,0,0,1-.1654.1506H69.7826a.0963.0963,0,0,0-.1053.09l-1.2947,7.3012a.1605.1605,0,0,1-.1663.1506Z" style="fill: #091f40"/>
      <path id="tagline_CompoundPathItem_3" data-name="tagline &lt;CompoundPathItem&gt;" d="M76.9628,210.5149a.1989.1989,0,0,1-.2118-.1506l-.7225-3.2516h-.813c-.05,0-.08.03-.09.0906l-.5721,3.161a.16.16,0,0,1-.1654.1506h-2.74q-.1509,0-.1206-.1506l1.7614-9.9354c.02-.1.07-.1507.1506-.1507h4.14a4.6326,4.6326,0,0,1,1.4451.2034,2.8018,2.8018,0,0,1,1.0237.572,2.35,2.35,0,0,1,.61.8733,2.9338,2.9338,0,0,1,.2033,1.1062,4.052,4.052,0,0,1-.55,2.16,3.6708,3.6708,0,0,1-1.4978,1.3774l.9937,3.7788a.1473.1473,0,0,1-.0155.1127.1114.1114,0,0,1-.1058.0527Zm-.3925-5.8558a1.26,1.26,0,0,0,.8583-.3013,1.0941,1.0941,0,0,0,.3461-.8728.6109.6109,0,0,0-.2184-.4972.9845.9845,0,0,0-.64-.1806h-.9484a.08.08,0,0,0-.09.09l-.3011,1.6709c-.02.06,0,.09.06.09Z" style="fill: #091f40"/>
      <path id="tagline_CompoundPathItem_4" data-name="tagline &lt;CompoundPathItem&gt;" d="M82.4215,200.4289c.02-.1.07-.1507.1506-.1507h6.6538c.1,0,.14.05.12.1507L88.94,202.657q-.03.15-.1506.15H85.086a.08.08,0,0,0-.09.09L84.8,204.0266c-.02.06,0,.09.06.09h2.9505q.15,0,.12.1506l-.3763,2.1676a.1677.1677,0,0,1-.1807.1506H84.4237c-.05,0-.0806.03-.09.09l-.2257,1.2193c0,.0606.0248.0906.0751.0906h3.6732q.15,0,.12.15l-.3914,2.2281a.16.16,0,0,1-.1654.1506H80.7807q-.1509,0-.1206-.1506Z" style="fill: #091f40"/>
      <path id="tagline_CompoundPathItem_5" data-name="tagline &lt;CompoundPathItem&gt;" d="M90.4571,200.4289a.16.16,0,0,1,.1656-.1507h2.5892a.2087.2087,0,0,1,.2258.1507l1.49,5.2237h.06l.9181-5.2237a.16.16,0,0,1,.1656-.1507H98.526c.1,0,.14.05.12.1507l-1.7612,9.9354a.16.16,0,0,1-.1656.1506H94.1a.189.189,0,0,1-.1957-.1506l-1.4751-5.2237h-.0753l-.9184,5.2237a.16.16,0,0,1-.1654.1506H88.8313q-.1659,0-.1356-.1506Z" style="fill: #091f40"/>
      <path id="tagline_CompoundPathItem_6" data-name="tagline &lt;CompoundPathItem&gt;" d="M98.61,207.3839a9.2169,9.2169,0,0,1,.0753-1.0313q.0751-.64.2031-1.34t.3086-1.37a6.4427,6.4427,0,0,1,.3914-1.1066,4.1316,4.1316,0,0,1,1.6785-1.8594,5.101,5.101,0,0,1,2.5065-.5794,3.8061,3.8061,0,0,1,2.1978.5794,3.0854,3.0854,0,0,1,1.1894,1.6186.1853.1853,0,0,1-.12.256l-2.3935.9181q-.1809.0757-.256-.0753a1.1638,1.1638,0,0,0-.3463-.444.9892.9892,0,0,0-.6021-.158,1.1031,1.1031,0,0,0-.6624.1954,1.3939,1.3939,0,0,0-.4366.542,4.5282,4.5282,0,0,0-.1957.6326q-.12.4662-.2257,1.0235t-.1807,1.0914a6.3308,6.3308,0,0,0-.0753.8206.9364.9364,0,0,0,.2259.6548.8908.8908,0,0,0,.6924.2481,1.4177,1.4177,0,0,0,.73-.1728,1.0728,1.0728,0,0,0,.429-.4441,1.3628,1.3628,0,0,0,.09-.3613.08.08,0,0,0-.09-.0906h-.7527c-.09,0-.1256-.05-.1053-.1506l.3463-1.8968a.16.16,0,0,1,.1654-.15h3.6882q.1356,0,.1054.15l-.12.6926q-.09.5421-.173.9408t-.1733.7153a5.4226,5.4226,0,0,1-.1957.572q-.1055.2561-.2407.5116a4.1288,4.1288,0,0,1-1.6408,1.8293,5.5467,5.5467,0,0,1-3.9216.3387,3.08,3.08,0,0,1-1.1367-.6247,2.7729,2.7729,0,0,1-.7224-1.0314A3.7476,3.7476,0,0,1,98.61,207.3839Z" style="fill: #091f40"/>
      <path id="tagline_CompoundPathItem_7" data-name="tagline &lt;CompoundPathItem&gt;" d="M109.0989,210.5149q-.1665,0-.1363-.1506l1.3011-7.3012c.01-.06-.01-.09-.0605-.09h-2.3546c-.1106,0-.1556-.05-.1354-.1506l.4214-2.3935a.16.16,0,0,1,.1657-.1507h7.9485c.11,0,.1554.05.1354.1507l-.4367,2.3935a.16.16,0,0,1-.1654.1506h-2.3635a.0963.0963,0,0,0-.1053.09l-1.2948,7.3012a.16.16,0,0,1-.1663.1506Z" style="fill: #091f40"/>
      <path id="tagline_CompoundPathItem_8" data-name="tagline &lt;CompoundPathItem&gt;" d="M116.9246,200.4289a.1607.1607,0,0,1,.1663-.1507h2.7534c.1108,0,.1563.05.1362.1507l-.602,3.4475c-.02.06,0,.09.06.09h2.0673q.0747,0,.1047-.09l.6131-3.4475a.1607.1607,0,0,1,.1663-.1507h2.7534c.1108,0,.1563.05.1362.1507l-1.7646,9.9354a.16.16,0,0,1-.1659.1506h-2.7446c-.1106,0-.1561-.05-.1358-.1506l.6334-3.6129c.01-.06-.0153-.09-.0753-.09h-2.0814q-.0755,0-.09.09l-.6485,3.6129a.16.16,0,0,1-.1659.1506h-2.7417q-.1659,0-.1357-.1506Z" style="fill: #091f40"/>
      <path id="tagline_CompoundPathItem_9" data-name="tagline &lt;CompoundPathItem&gt;" d="M128.606,208.3621a3.5626,3.5626,0,0,1,.0979-.8506,2.75,2.75,0,0,1,.3464-.7976,4.5739,4.5739,0,0,1,.6847-.828,10.264,10.264,0,0,1,1.1141-.926,4.7814,4.7814,0,0,1-.4817-1.0008,2.7653,2.7653,0,0,1-.1354-.8354,3.0783,3.0783,0,0,1,.2407-1.2347,2.7219,2.7219,0,0,1,.685-.956,3.0938,3.0938,0,0,1,1.0838-.6169,4.4394,4.4394,0,0,1,1.4378-.2185,2.6075,2.6075,0,0,1,1.8591.6173,2.0588,2.0588,0,0,1,.6547,1.5655,2.5661,2.5661,0,0,1-.1127.7679,2.6,2.6,0,0,1-.369.7227,4.4189,4.4189,0,0,1-.6924.7449q-.4368.384-1.0838.8506l.5871.9787,1.3247-1.1894a.1319.1319,0,0,1,.2108,0l1.2043,1.28a.1388.1388,0,0,1-.0152.2107l-1.5955,1.5507a.5025.5025,0,0,0,.2257.1728,1.0051,1.0051,0,0,0,.3613.0527h.3311c.1,0,.14.05.1206.1506l-.3163,1.7915a.16.16,0,0,1-.1656.1506H135.44a2.5265,2.5265,0,0,1-1.001-.158,1.6257,1.6257,0,0,1-.64-.5494,4.7134,4.7134,0,0,1-1.4.7074,4.9,4.9,0,0,1-1.3248.1807,2.6839,2.6839,0,0,1-1.0611-.1959,2.3011,2.3011,0,0,1-.7754-.5268,2.2124,2.2124,0,0,1-.4741-.7453A2.4007,2.4007,0,0,1,128.606,208.3621Zm2.5141-.5267a.5855.5855,0,0,0,.158.4214.6043.6043,0,0,0,.4591.1654,1.0112,1.0112,0,0,0,.414-.09,2.601,2.601,0,0,0,.5344-.3613l-.7677-1.2495a2.8444,2.8444,0,0,0-.61.5494A.9107.9107,0,0,0,131.12,207.8354Zm1.7612-4.23a5.6207,5.6207,0,0,0,.4667-.3761,2.5253,2.5253,0,0,0,.286-.3013.7317.7317,0,0,0,.1356-.2481.9057.9057,0,0,0,.03-.2333.4912.4912,0,0,0-.12-.3614.4477.4477,0,0,0-.3313-.1206.71.71,0,0,0-.5194.2181.7274.7274,0,0,0-.2181.5346,1.3862,1.3862,0,0,0,.0527.3914A2.9232,2.9232,0,0,0,132.8813,203.6051Z" style="fill: #091f40"/>
      <path id="tagline_CompoundPathItem_10" data-name="tagline &lt;CompoundPathItem&gt;" d="M141.7026,207.3987a10.168,10.168,0,0,1,.0677-1.0387q.0679-.6321.1957-1.3248t.3087-1.3547a7.147,7.147,0,0,1,.4064-1.1441,4.2257,4.2257,0,0,1,1.6334-1.8441,4.828,4.828,0,0,1,2.4764-.5947,3.52,3.52,0,0,1,2.2053.6325,2.99,2.99,0,0,1,1.0763,1.8063.1558.1558,0,0,1-.1053.2107l-2.4086.9334q-.1808.0757-.2259-.09a1.1249,1.1249,0,0,0-.271-.6025.7986.7986,0,0,0-.5871-.1954.988.988,0,0,0-.6171.1954,1.4577,1.4577,0,0,0-.4216.542,4.3584,4.3584,0,0,0-.2107.67q-.12.4741-.2183,1.0235t-.1731,1.0692a6.0141,6.0141,0,0,0-.0753.8054.978.978,0,0,0,.2107.6548.7291.7291,0,0,0,.5873.2481.9341.9341,0,0,0,.64-.2181,2.6645,2.6645,0,0,0,.4892-.61q.09-.18.2259-.1054l2.1375,1.2347a.1573.1573,0,0,1,.0453.2259,4.4869,4.4869,0,0,1-1.6408,1.6482,4.7713,4.7713,0,0,1-2.3184.5194,4.367,4.367,0,0,1-1.3849-.2107,2.8459,2.8459,0,0,1-1.7914-1.6709A3.6641,3.6641,0,0,1,141.7026,207.3987Z" style="fill: #091f40"/>
      <path id="tagline_CompoundPathItem_11" data-name="tagline &lt;CompoundPathItem&gt;" d="M153.4641,210.6956a3.8913,3.8913,0,0,1-2.6119-.828,3.0828,3.0828,0,0,1-.971-2.4837,10.2722,10.2722,0,0,1,.0677-1.0313q.0679-.64.1957-1.34t.3086-1.37a5.6411,5.6411,0,0,1,.4064-1.1066,4.078,4.078,0,0,1,1.7088-1.8594A5.0476,5.0476,0,0,1,155,200.0976a3.8916,3.8916,0,0,1,2.6119.828,3.0841,3.0841,0,0,1,.971,2.4841q0,.3911-.0679,1.0387t-.1957,1.347q-.128.7-.3084,1.3626a5.6565,5.6565,0,0,1-.4066,1.0988,4.0757,4.0757,0,0,1-1.7085,1.8593A5.0483,5.0483,0,0,1,153.4641,210.6956Zm.316-2.6948a1.0351,1.0351,0,0,0,.6474-.1955,1.4626,1.4626,0,0,0,.4214-.542,4.5614,4.5614,0,0,0,.1957-.6321q.12-.467.2259-1.0239t.1807-1.084a6.2221,6.2221,0,0,0,.0751-.8276,1.0033,1.0033,0,0,0-.2031-.6552.78.78,0,0,0-.64-.2481,1.0365,1.0365,0,0,0-.6474.1954,1.4557,1.4557,0,0,0-.4216.542,4.5282,4.5282,0,0,0-.1957.6326q-.12.4662-.2257,1.0235t-.1807,1.0914a6.3308,6.3308,0,0,0-.0753.8206,1.0018,1.0018,0,0,0,.2033.6548A.779.779,0,0,0,153.78,208.0008Z" style="fill: #091f40"/>
      <path id="tagline_CompoundPathItem_12" data-name="tagline &lt;CompoundPathItem&gt;" d="M160.3149,200.4289a.16.16,0,0,1,.1656-.1507H163.07a.2085.2085,0,0,1,.2257.1507l1.49,5.2237h.06l.9182-5.2237a.16.16,0,0,1,.1656-.1507h2.4538c.1,0,.14.05.12.1507l-1.7612,9.9354a.16.16,0,0,1-.1656.1506h-2.62a.189.189,0,0,1-.1957-.1506l-1.4751-5.2237h-.0754l-.9183,5.2237a.16.16,0,0,1-.1654.1506h-2.4388q-.1659,0-.1356-.1506Z" style="fill: #091f40"/>
      <path id="tagline_CompoundPathItem_13" data-name="tagline &lt;CompoundPathItem&gt;" d="M169.883,200.4289c.02-.1.07-.1507.1507-.1507h3.9892a3.6053,3.6053,0,0,1,2.4236.738,2.9361,2.9361,0,0,1,.8581,2.3482,10.87,10.87,0,0,1-.0677,1.0988q-.0679.6479-.1957,1.3248t-.3011,1.31a5.8321,5.8321,0,0,1-.3839,1.0535,3.8555,3.8555,0,0,1-1.7085,1.8367,5.3612,5.3612,0,0,1-2.4162.5268h-3.9893q-.1508,0-.1206-.1506Zm2.2279,7.3912a2.0767,2.0767,0,0,0,.926-.1654,1.3825,1.3825,0,0,0,.5644-.6474,3.8946,3.8946,0,0,0,.2107-.6247q.1051-.399.1883-.8428t.1354-.8433a5.0514,5.0514,0,0,0,.0527-.6094,1.1509,1.1509,0,0,0-.271-.8433,1.4009,1.4009,0,0,0-.9935-.2708h-.3763c-.05,0-.0806.03-.09.09l-.828,4.6669q-.03.09.06.09Z" style="fill: #091f40"/>
      <path id="tagline_CompoundPathItem_14" data-name="tagline &lt;CompoundPathItem&gt;" d="M179.081,200.4289a.1606.1606,0,0,1,.1663-.1507h2.7533c.1108,0,.1563.05.1363.1507l-1.77,9.9354a.1606.1606,0,0,1-.1665.1506h-2.7453q-.1659,0-.1356-.1506Z" style="fill: #091f40"/>
      <path id="tagline_CompoundPathItem_15" data-name="tagline &lt;CompoundPathItem&gt;" d="M183.64,210.5149q-.1665,0-.1363-.1506l1.301-7.3012q.015-.09-.06-.09h-2.3545c-.1106,0-.1557-.05-.1354-.1506l.4214-2.3935a.16.16,0,0,1,.1656-.1507H190.79c.11,0,.1554.05.1354.1507l-.4366,2.3935a.16.16,0,0,1-.1655.1506h-2.3634a.0964.0964,0,0,0-.1054.09l-1.2947,7.3012a.16.16,0,0,1-.1663.1506Z" style="fill: #091f40"/>
      <path id="tagline_CompoundPathItem_16" data-name="tagline &lt;CompoundPathItem&gt;" d="M191.4654,200.4289a.1606.1606,0,0,1,.1663-.1507h2.7533c.1108,0,.1563.05.1363.1507l-1.77,9.9354a.16.16,0,0,1-.1665.1506H189.84q-.1659,0-.1356-.1506Z" style="fill: #091f40"/>
      <path id="tagline_CompoundPathItem_17" data-name="tagline &lt;CompoundPathItem&gt;" d="M198.06,210.6956a3.8908,3.8908,0,0,1-2.6118-.828,3.0826,3.0826,0,0,1-.9711-2.4837,10.3023,10.3023,0,0,1,.0677-1.0313q.0679-.64.1957-1.34t.3087-1.37a5.6411,5.6411,0,0,1,.4064-1.1066,4.0773,4.0773,0,0,1,1.7087-1.8594,5.0477,5.0477,0,0,1,2.4312-.5794,3.8912,3.8912,0,0,1,2.6118.828,3.0838,3.0838,0,0,1,.971,2.4841q0,.3911-.0679,1.0387t-.1957,1.347q-.1279.7-.3084,1.3626a5.6565,5.6565,0,0,1-.4066,1.0988,4.0752,4.0752,0,0,1-1.7085,1.8593A5.0483,5.0483,0,0,1,198.06,210.6956Zm.3161-2.6948a1.0348,1.0348,0,0,0,.6473-.1955,1.4605,1.4605,0,0,0,.4214-.542,4.5614,4.5614,0,0,0,.1957-.6321q.12-.467.226-1.0239t.1806-1.084a6.2221,6.2221,0,0,0,.0751-.8276,1.0033,1.0033,0,0,0-.2031-.6552.78.78,0,0,0-.64-.2481,1.036,1.036,0,0,0-.6473.1954,1.4569,1.4569,0,0,0-.4217.542,4.5422,4.5422,0,0,0-.1957.6326q-.12.4662-.2257,1.0235t-.1807,1.0914a6.3489,6.3489,0,0,0-.0753.8206,1.0018,1.0018,0,0,0,.2033.6548A.779.779,0,0,0,198.3765,208.0008Z" style="fill: #091f40"/>
      <path id="tagline_CompoundPathItem_18" data-name="tagline &lt;CompoundPathItem&gt;" d="M204.911,200.4289a.16.16,0,0,1,.1656-.1507h2.5892a.2085.2085,0,0,1,.2257.1507l1.49,5.2237h.06l.9182-5.2237a.16.16,0,0,1,.1656-.1507H212.98c.1,0,.14.05.12.1507l-1.7612,9.9354a.16.16,0,0,1-.1656.1506h-2.6195a.189.189,0,0,1-.1957-.1506l-1.4751-5.2237h-.0753l-.9184,5.2237a.16.16,0,0,1-.1654.1506h-2.4388q-.1659,0-.1356-.1506Z" style="fill: #091f40"/>
      <path id="tagline_CompoundPathItem_19" data-name="tagline &lt;CompoundPathItem&gt;" d="M214.4792,200.4289a.1606.1606,0,0,1,.1663-.1507h2.7533c.1108,0,.1563.05.1363.1507l-1.77,9.9354a.1606.1606,0,0,1-.1666.1506h-2.7452q-.1659,0-.1356-.1506Z" style="fill: #091f40"/>
      <path id="tagline_CompoundPathItem_20" data-name="tagline &lt;CompoundPathItem&gt;" d="M218.9064,200.4289a.16.16,0,0,1,.1656-.1507h2.5892a.2087.2087,0,0,1,.2258.1507l1.49,5.2237h.06l.9181-5.2237a.16.16,0,0,1,.1656-.1507h2.4539c.1,0,.14.05.12.1507l-1.7612,9.9354a.16.16,0,0,1-.1656.1506h-2.62a.189.189,0,0,1-.1957-.1506l-1.4751-5.2237h-.0753l-.9184,5.2237a.16.16,0,0,1-.1654.1506h-2.4388q-.1659,0-.1356-.1506Z" style="fill: #091f40"/>
      <path id="tagline_CompoundPathItem_21" data-name="tagline &lt;CompoundPathItem&gt;" d="M227.06,207.3839a9.2169,9.2169,0,0,1,.0753-1.0313q.0751-.64.2031-1.34t.3086-1.37a6.4427,6.4427,0,0,1,.3914-1.1066,4.1316,4.1316,0,0,1,1.6785-1.8594,5.101,5.101,0,0,1,2.5065-.5794,3.8061,3.8061,0,0,1,2.1978.5794,3.0854,3.0854,0,0,1,1.1894,1.6186.1853.1853,0,0,1-.12.256l-2.3935.9181q-.1809.0757-.256-.0753a1.1638,1.1638,0,0,0-.3463-.444.9892.9892,0,0,0-.6021-.158,1.1031,1.1031,0,0,0-.6624.1954,1.3939,1.3939,0,0,0-.4366.542,4.5282,4.5282,0,0,0-.1957.6326q-.12.4662-.2257,1.0235t-.1807,1.0914a6.3308,6.3308,0,0,0-.0753.8206.9364.9364,0,0,0,.2259.6548.8908.8908,0,0,0,.6924.2481,1.4177,1.4177,0,0,0,.73-.1728,1.0728,1.0728,0,0,0,.429-.4441,1.3628,1.3628,0,0,0,.09-.3613.08.08,0,0,0-.09-.0906H231.44c-.09,0-.1256-.05-.1053-.1506l.3463-1.8968a.16.16,0,0,1,.1654-.15h3.6882q.1356,0,.1054.15l-.12.6926q-.09.5421-.173.9408t-.1733.7153a5.4226,5.4226,0,0,1-.1957.572q-.1054.2561-.2407.5116a4.1288,4.1288,0,0,1-1.6408,1.8293,5.5467,5.5467,0,0,1-3.9216.3387,3.08,3.08,0,0,1-1.1367-.6247,2.7729,2.7729,0,0,1-.7224-1.0314A3.7476,3.7476,0,0,1,227.06,207.3839Z" style="fill: #091f40"/>
    </g>
  </g>
</svg>
